# xmcd
#
# Track frame offsets:
# 183
# 12495
# 25060
# 34818
# 44880
# 54803
# 63318
# 74498
# 84883
# 95570
# 107105
# 117920
# 128820
# 136925
# 146013
# 156040
# 166158
# 174023
# 184150
# 196305
# 206063
# 214293
# 225850
# 238293
# 250285
#
# Disc length: 3447 seconds
#
#
# Revision: 2
# Processed by: cddbd v1.5.2PL0 Copyright (c) Steve Scherf et al.
# Submitted via: FreeRIP 2.944 
#
DISCID=5f0d7519
DTITLE=Johnny Cash - Collection
DYEAR=1900
DGENRE=
TTITLE0=I walk the line
TTITLE1=Folsom prion blues
TTITLE2=Rock Island line
TTITLE3=Ballad of a teenage queen
TTITLE4=Hey porter
TTITLE5=I forgot to remember to forget
TTITLE6=I love you because
TTITLE7=Straight A's in love
TTITLE8=Train of love
TTITLE9=Big river
TTITLE10=Cold cold heart
TTITLE11=The ways of a woman in love
TTITLE12=Guess things happen that way
TTITLE13=Two timin' woman
TTITLE14=Get rhythm
TTITLE15=Goodbye little darling
TTITLE16=Hey good lookin'
TTITLE17=I could never be ashamed of you
TTITLE18=You're the nearest thing to Heaven
TTITLE19=Just about time
TTITLE20=Sugartime
TTITLE21=Thanks a lot
TTITLE22=Next in line
TTITLE23=Port of lonely hearts
TTITLE24=Country boy
EXTD=
EXTT0=
EXTT1=
EXTT2=
EXTT3=
EXTT4=
EXTT5=
EXTT6=
EXTT7=
EXTT8=
EXTT9=
EXTT10=
EXTT11=
EXTT12=
EXTT13=
EXTT14=
EXTT15=
EXTT16=
EXTT17=
EXTT18=
EXTT19=
EXTT20=
EXTT21=
EXTT22=
EXTT23=
EXTT24=
PLAYORDER=
